<?xml version="1.0" encoding="utf-8"?>
<!-- Generator: Adobe Illustrator 27.5.0, SVG Export Plug-In . SVG Version: 6.00 Build 0)  -->
<svg version="1.1" xmlns="http://www.w3.org/2000/svg" xmlns:xlink="http://www.w3.org/1999/xlink" x="0px" y="0px"
	 viewBox="0 0 500 500" style="enable-background:new 0 0 500 500;" xml:space="preserve">
<g id="Background_Complete">
	<g>
		<rect x="77.435" y="87.733" style="fill:#E0E0E0;" width="141.917" height="195.728"/>
		<rect x="83.492" y="92.622" style="fill:#FAFAFA;stroke:#FAFAFA;stroke-miterlimit:10;" width="128.037" height="184.929"/>
		<rect x="82.894" y="145.633" style="fill:#E0E0E0;" width="130.998" height="2.925"/>
		
			<rect x="81.141" y="210.539" transform="matrix(6.123234e-17 -1 1 6.123234e-17 -64.4914 359.5117)" style="fill:#E0E0E0;" width="132.738" height="2.925"/>
		<rect x="55.577" y="69.312" style="fill:#E0E0E0;" width="186.346" height="3.633"/>
		<g>
			<path style="fill:#EBEBEB;" d="M55.577,81.781c0,0,1.698,195.728,0.051,195.728c-1.647,0,36.802,0,36.802,0V81.781H55.577z"/>
			<g>
				<path style="fill:#E0E0E0;" d="M64.793,85.989c-0.144,0-0.26-3.649-0.26-8.15c0-4.502,0.117-8.15,0.26-8.15
					s0.26,3.648,0.26,8.15C65.053,82.339,64.937,85.989,64.793,85.989z"/>
			</g>
			<g>
				<path style="fill:#E0E0E0;" d="M59.827,85.989c-0.144,0-0.26-3.649-0.26-8.15c0-4.502,0.117-8.15,0.26-8.15
					c0.144,0,0.26,3.648,0.26,8.15C60.087,82.339,59.971,85.989,59.827,85.989z"/>
			</g>
			<g>
				<path style="fill:#E0E0E0;" d="M70.498,85.989c-0.144,0-0.26-3.649-0.26-8.15c0-4.502,0.117-8.15,0.26-8.15
					s0.26,3.648,0.26,8.15C70.759,82.339,70.642,85.989,70.498,85.989z"/>
			</g>
			<g>
				<path style="fill:#E0E0E0;" d="M76.204,85.989c-0.144,0-0.26-3.649-0.26-8.15c0-4.502,0.117-8.15,0.26-8.15
					c0.144,0,0.26,3.648,0.26,8.15C76.464,82.339,76.347,85.989,76.204,85.989z"/>
			</g>
			<g>
				<path style="fill:#E0E0E0;" d="M81.909,85.989c-0.144,0-0.26-3.649-0.26-8.15c0-4.502,0.117-8.15,0.26-8.15
					s0.26,3.648,0.26,8.15C82.169,82.339,82.053,85.989,81.909,85.989z"/>
			</g>
			<g>
				<path style="fill:#E0E0E0;" d="M87.396,85.989c-0.144,0-0.26-3.649-0.26-8.15c0-4.502,0.117-8.15,0.26-8.15
					c0.144,0,0.26,3.648,0.26,8.15C87.657,82.339,87.54,85.989,87.396,85.989z"/>
			</g>
		</g>
		<g>
			<path style="fill:#EBEBEB;" d="M203.855,81.781c0,0,1.698,195.728,0.051,195.728c-1.647,0,36.802,0,36.802,0V81.781H203.855z"/>
			<g>
				<path style="fill:#E0E0E0;" d="M213.071,85.989c-0.144,0-0.26-3.649-0.26-8.15c0-4.502,0.117-8.15,0.26-8.15
					s0.26,3.648,0.26,8.15C213.331,82.339,213.214,85.989,213.071,85.989z"/>
			</g>
			<g>
				<path style="fill:#E0E0E0;" d="M208.105,85.989c-0.144,0-0.26-3.649-0.26-8.15c0-4.502,0.117-8.15,0.26-8.15
					s0.26,3.648,0.26,8.15C208.365,82.339,208.248,85.989,208.105,85.989z"/>
			</g>
			<g>
				<path style="fill:#E0E0E0;" d="M218.776,85.989c-0.144,0-0.26-3.649-0.26-8.15c0-4.502,0.117-8.15,0.26-8.15
					c0.144,0,0.26,3.648,0.26,8.15C219.036,82.339,218.92,85.989,218.776,85.989z"/>
			</g>
			<g>
				<path style="fill:#E0E0E0;" d="M224.481,85.989c-0.144,0-0.26-3.649-0.26-8.15c0-4.502,0.117-8.15,0.26-8.15
					c0.144,0,0.26,3.648,0.26,8.15C224.741,82.339,224.625,85.989,224.481,85.989z"/>
			</g>
			<g>
				<path style="fill:#E0E0E0;" d="M230.186,85.989c-0.144,0-0.26-3.649-0.26-8.15c0-4.502,0.117-8.15,0.26-8.15
					c0.144,0,0.26,3.648,0.26,8.15C230.447,82.339,230.33,85.989,230.186,85.989z"/>
			</g>
			<g>
				<path style="fill:#E0E0E0;" d="M235.674,85.989c-0.144,0-0.26-3.649-0.26-8.15c0-4.502,0.117-8.15,0.26-8.15
					s0.26,3.648,0.26,8.15C235.934,82.339,235.818,85.989,235.674,85.989z"/>
			</g>
		</g>
	</g>
	<g>
		<g>
			<g>
				<polygon style="fill:#EBEBEB;" points="346.402,435.812 346.402,465.201 389.38,465.201 436.782,465.201 436.782,435.812 				
					"/>
			</g>
			<g>
				<polygon style="fill:#F5F5F5;" points="342.61,427.595 342.61,435.812 439.942,435.812 439.942,427.595 389.38,427.595 				"/>
			</g>
			<g>
				<polygon style="fill:#E0E0E0;" points="391.276,465.201 436.782,465.201 436.782,435.812 439.942,435.812 439.942,427.595 
					389.38,427.595 389.38,435.051 				"/>
			</g>
			<g>
				<rect x="359.042" y="440.551" style="fill:#E0E0E0;" width="18.329" height="4.424"/>
			</g>
			<g>
				<rect x="356.684" y="450.505" style="fill:#FAFAFA;" width="23.535" height="9.342"/>
			</g>
		</g>
	</g>
	<g>
		<g>
			<g>
				<polygon style="fill:#EBEBEB;" points="369.37,395.366 369.239,384.317 407.952,387.635 409.159,398.564 				"/>
				
					<rect x="388.734" y="379.196" transform="matrix(0.0852 -0.9964 0.9964 0.0852 -33.3953 746.324)" style="fill:#E0E0E0;" width="1.993" height="24.304"/>
			</g>
			<g>
				<g>
					<polygon style="fill:#E0E0E0;" points="364.755,384.875 364.74,373.826 403.416,377.554 404.401,387.427 					"/>
					<polygon style="fill:#FFFFFF;" points="364.742,375.329 364.723,382.785 402.413,385.565 401.783,378.685 					"/>
					<g>
						<path style="fill:#E0E0E0;" d="M399.548,381.55c-0.004,0.036-0.49,0.021-1.367-0.036c-0.976-0.077-2.219-0.174-3.705-0.291
							c-3.126-0.268-7.441-0.675-12.204-1.156c-4.764-0.481-9.074-0.946-12.191-1.308c-1.48-0.183-2.718-0.336-3.69-0.456
							c-0.87-0.119-1.35-0.202-1.347-0.238c0.003-0.036,0.488-0.021,1.364,0.036c0.976,0.077,2.219,0.174,3.704,0.291
							c3.126,0.268,7.443,0.675,12.209,1.157c4.764,0.481,9.075,0.946,12.193,1.309c1.48,0.183,2.717,0.336,3.689,0.456
							C399.073,381.431,399.552,381.514,399.548,381.55z"/>
					</g>
					<g>
						<path style="fill:#E0E0E0;" d="M399.47,382.485c-0.003,0.036-0.493,0.036-1.377,0.006c-0.984-0.047-2.239-0.106-3.74-0.177
							c-3.157-0.172-7.515-0.446-12.326-0.781c-4.812-0.335-9.166-0.667-12.316-0.933c-1.496-0.137-2.746-0.252-3.727-0.342
							c-0.879-0.092-1.364-0.16-1.361-0.196s0.493-0.036,1.377-0.006c0.984,0.047,2.239,0.106,3.74,0.177
							c3.157,0.172,7.515,0.446,12.327,0.781c4.81,0.335,9.164,0.667,12.313,0.933c1.496,0.137,2.747,0.252,3.728,0.342
							C398.987,382.381,399.472,382.449,399.47,382.485z"/>
					</g>
				</g>
			</g>
		</g>
		<g>
			<g>
				<g>
					<polygon style="fill:#E0E0E0;" points="369.815,405.551 369.671,394.502 408.388,397.784 409.487,407.646 					"/>
				</g>
			</g>
			<g>
				<path style="fill:#F5F5F5;" d="M374.08,405.781c-0.144,0.002-0.356-2.435-0.473-5.442c-0.117-3.008-0.096-5.454,0.048-5.463
					c0.143-0.009,0.355,2.427,0.473,5.442C374.245,403.333,374.224,405.779,374.08,405.781z"/>
			</g>
			<g>
				<path style="fill:#F5F5F5;" d="M375.537,394.999c0.144-0.003,0.313,2.428,0.378,5.429c0.065,3.002,0.001,5.437-0.142,5.44
					c-0.144,0.003-0.313-2.427-0.378-5.429C375.329,397.438,375.393,395.002,375.537,394.999z"/>
			</g>
			<g>
				<path style="fill:#FFFFFF;" d="M379.06,399.864c6.748,0.744,14.683,1.171,21.544,1.782"/>
				<g>
					<path style="fill:#F5F5F5;" d="M400.604,401.646c-0.007,0.073-1.217,0.028-3.17-0.08c-1.953-0.109-4.649-0.276-7.626-0.498
						c-2.978-0.222-5.671-0.471-7.616-0.702c-1.945-0.229-3.14-0.432-3.133-0.501c0.008-0.074,1.217,0,3.167,0.135
						c2.106,0.152,4.724,0.341,7.621,0.549c2.975,0.221,5.669,0.447,7.616,0.65C399.411,401.401,400.61,401.576,400.604,401.646z"/>
				</g>
			</g>
			<g>
				<path style="fill:#F5F5F5;" d="M403.432,407.327c-0.144,0.007-0.368-2.202-0.502-4.932c-0.134-2.732-0.125-4.951,0.018-4.958
					c0.144-0.007,0.368,2.201,0.502,4.933C403.584,405.099,403.576,407.319,403.432,407.327z"/>
			</g>
			<g>
				<path style="fill:#F5F5F5;" d="M405.817,407.451c-0.143,0.014-0.478-2.192-0.747-4.927c-0.269-2.736-0.372-4.965-0.229-4.979
					s0.478,2.192,0.747,4.928C405.858,405.208,405.96,407.437,405.817,407.451z"/>
			</g>
			<g>
				<path style="fill:#FFFFFF;" d="M384.805,402.338c4.267,0.291,7.517,0.505,10.916,0.583"/>
				<g>
					<path style="fill:#F5F5F5;" d="M395.721,402.921c-0.003,0.144-2.452,0.13-5.47-0.031c-3.019-0.161-5.457-0.408-5.446-0.552
						c0.01-0.143,2.459-0.129,5.47,0.031C393.285,402.53,395.724,402.777,395.721,402.921z"/>
				</g>
			</g>
		</g>
		<g>
			<g>
				<polygon style="fill:#E0E0E0;" points="372.412,427.127 371.684,416.102 410.52,417.329 412.14,427.119 				"/>
				<polygon style="fill:#FAFAFA;" points="373.948,425.742 411.74,425.202 410.689,418.338 373.237,417.647 				"/>
			</g>
		</g>
		<g>
			<polygon style="fill:#EBEBEB;" points="373.469,416.319 373.111,405.276 411.884,407.806 413.174,417.644 			"/>
			
				<rect x="392.747" y="399.737" transform="matrix(0.0649 -0.9979 0.9979 0.0649 -42.8199 778.0829)" style="fill:#E0E0E0;" width="1.993" height="24.304"/>
		</g>
		<g>
			<path style="fill:#E0E0E0;" d="M411.076,421.163c0,0.036-0.529,0.072-1.484,0.107c-1.051,0.026-2.411,0.059-4.044,0.099
				c-3.414,0.06-8.129,0.108-13.337,0.128c-5.21,0.02-9.926,0.009-13.34-0.024c-1.633-0.027-2.993-0.049-4.044-0.067
				c-0.955-0.027-1.484-0.06-1.484-0.096c-0.001-0.036,0.526-0.072,1.481-0.107c1.051-0.026,2.41-0.059,4.042-0.099
				c3.414-0.06,8.132-0.108,13.344-0.128c5.21-0.02,9.928-0.01,13.342,0.024c1.633,0.027,2.992,0.05,4.043,0.067
				C410.549,421.095,411.076,421.127,411.076,421.163z"/>
		</g>
		<g>
			<path style="fill:#E0E0E0;" d="M411.52,423.304c-0.001,0.036-0.534,0.063-1.496,0.081c-1.058,0.007-2.427,0.016-4.073,0.027
				c-3.439,0-8.187-0.036-13.431-0.109c-5.246-0.072-9.995-0.167-13.432-0.261c-1.645-0.056-3.013-0.103-4.071-0.139
				c-0.961-0.044-1.493-0.086-1.493-0.122c0-0.036,0.531-0.063,1.493-0.081c1.057-0.007,2.426-0.016,4.072-0.027
				c3.439,0,8.189,0.036,13.437,0.109c5.246,0.072,9.996,0.167,13.433,0.261c1.645,0.056,3.013,0.103,4.07,0.139
				C410.99,423.227,411.521,423.268,411.52,423.304z"/>
		</g>
	</g>
	<g>
		<g>
			<g>
				<path style="fill:#F5F5F5;" d="M84.512,353.431c-4.859,0.781-7.031,6.753-6.607,11.656c0.425,4.903,2.44,9.696,1.901,14.588
					c-0.685,6.212-5.379,11.463-5.926,17.689c-0.645,7.342,4.546,13.855,6.097,21.061c0.754,3.506,0.649,7.213,1.954,10.553
					c2.201,5.632,8.655,9.248,14.608,8.185c5.953-1.063,10.756-6.691,10.871-12.736c0.108-5.638-3.371-10.948-2.949-16.57
					c0.312-4.157,2.748-8.095,2.227-12.23c-0.621-4.92-5.18-8.414-6.789-13.105c-1.609-4.692-0.063-9.862-0.619-14.792
					C98.286,358.885,93.383,352.721,84.512,353.431"/>
			</g>
			<g>
				<path style="fill:#EBEBEB;" d="M59.7,396.247c-0.827,8.194,2.797,17.834,7.01,24.909c4.214,7.076,10.745,12.745,18.343,15.921
					c0.857,0.358,1.924,0.659,2.645,0.075c0.591-0.48,0.664-1.34,0.669-2.102c0.058-8.622-2.748-17.24-7.872-24.175
					C75.372,403.939,67.959,398.725,59.7,396.247"/>
			</g>
			<g>
				<g>
					<path style="fill:#E0E0E0;" d="M95.393,454.21c-0.015,0.006-0.095-0.152-0.233-0.457c-0.154-0.353-0.348-0.797-0.585-1.342
						c-0.493-1.17-1.229-2.855-2.166-4.922c-1.871-4.137-4.644-9.768-8.135-15.75c-3.499-5.979-7.046-11.16-9.731-14.82
						c-1.341-1.832-2.447-3.3-3.226-4.303c-0.358-0.473-0.649-0.859-0.882-1.168c-0.197-0.271-0.296-0.417-0.283-0.427
						c0.013-0.01,0.135,0.116,0.356,0.368c0.25,0.294,0.565,0.663,0.951,1.114c0.823,0.97,1.971,2.409,3.348,4.219
						c2.759,3.616,6.359,8.784,9.869,14.782c3.501,6,6.236,11.672,8.034,15.85c0.901,2.089,1.592,3.796,2.033,4.989
						c0.205,0.557,0.371,1.012,0.504,1.375C95.358,454.036,95.408,454.204,95.393,454.21z"/>
				</g>
			</g>
			<g>
				<g>
					<path style="fill:#E0E0E0;" d="M90.118,376.099c0.016-0.001,0.047,0.27,0.089,0.786c0.041,0.556,0.095,1.309,0.164,2.257
						c0.128,2.004,0.31,4.829,0.534,8.302c0.442,7.011,1.064,16.695,1.816,27.387c0.753,10.695,1.494,20.371,2.038,27.375
						c0.266,3.47,0.481,6.293,0.635,8.296c0.064,0.947,0.116,1.701,0.154,2.257c0.03,0.516,0.039,0.788,0.022,0.79
						c-0.016,0.001-0.055-0.268-0.116-0.781c-0.059-0.555-0.139-1.305-0.241-2.249c-0.189-2-0.455-4.819-0.782-8.284
						c-0.628-6.998-1.421-16.673-2.175-27.37c-0.752-10.694-1.322-20.384-1.68-27.401c-0.162-3.476-0.293-6.305-0.386-8.312
						c-0.032-0.95-0.057-1.704-0.077-2.261C90.101,376.372,90.102,376.1,90.118,376.099z"/>
				</g>
			</g>
		</g>
		<g>
			<path style="fill:#E0E0E0;" d="M82.582,442.525h20.52v15.065c0,5.441-4.41,9.85-9.85,9.85l0,0c-5.236,0-9.557-4.095-9.837-9.324
				L82.582,442.525z"/>
		</g>
	</g>
	<g>
		<g>
			<g>
				<g>
					<g>
						<polygon style="fill:#EBEBEB;" points="380.874,85.587 375.455,135.874 444.884,135.874 450.642,85.587 						"/>
					</g>
				</g>
				<g>
					<g>
						<polygon style="fill:#FAFAFA;" points="383.728,89.199 378.456,133.203 441.116,133.203 446.186,89.199 						"/>
					</g>
				</g>
				<g>
					<g>
						<polygon style="fill:#E0E0E0;" points="394.273,96.601 391.029,125.801 430.571,125.801 432.6,96.601 						"/>
					</g>
				</g>
			</g>
			<polyline style="fill:#F5F5F5;" points="448.163,107.244 462.504,136.076 444.884,135.874 448.378,105.362 			"/>
		</g>
		<rect x="456.492" y="141.864" style="fill:#E0E0E0;" width="6.245" height="15.637"/>
		<rect x="365.024" y="141.864" style="fill:#E0E0E0;" width="6.245" height="15.637"/>
		<rect x="352.176" y="136.177" style="fill:#E0E0E0;" width="121.996" height="6.602"/>
	</g>
</g>
<g id="Background_Simple" style="display:none;">
	<path style="display:inline;fill:#EBEBEB;" d="M240.799,133.242c-4.844-34.522-15.215-54.935-41.234-67.544
		c-26.018-12.609-58.35-8.722-82.779,6.744C92.357,87.907,75.55,113.74,67.498,141.509c-14.945,51.54-0.585,108.895,30.745,152.462
		c31.331,43.567,78.034,74.329,127.919,94.109c32.947,13.064,68.112,21.78,103.539,20.692s71.215-12.592,97.759-36.078
		c26.544-23.486,49.246-74.11,41.877-101.551c-9.192-34.23-17.098-51.632-51.099-61.636c-29.402-8.651-43.913-3.006-62.21,1.254
		c-18.298,4.26-30.998,10.665-49.755,9.608c-18.757-1.057-38.229-9.117-47.923-25.21
		C248.033,178.032,241.54,153.637,240.799,133.242"/>
</g>
<g id="Floor">
	<g>
		<path style="fill:#263238;" d="M455.059,465.506c0,0.144-91.815,0.26-205.049,0.26c-113.273,0-205.068-0.117-205.068-0.26
			c0-0.144,91.796-0.26,205.068-0.26C363.243,465.246,455.059,465.362,455.059,465.506z"/>
	</g>
</g>
<g id="Plant">
	<g>
		<g>
			<g>
				<path style="fill:#E8505B;" d="M338.686,320.709c-17.249-12.051-21.162-34.419-20.48-54.526c0.113-3.356-0.255-6.895,1.341-9.84
					c1.597-2.944,5.322-4.957,8.327-3.543c2.493,1.173,3.579,4.073,4.973,6.47c1.855,3.19,4.619,5.83,7.871,7.518
					c2.137,1.109,4.781,1.787,6.891,0.624c2.895-1.597,3.236-5.597,3.216-8.936c-0.039-6.222-0.078-12.444-0.117-18.664
					c-0.021-3.338-0.031-6.746,1.008-9.914c1.038-3.168,3.332-6.111,6.507-7.001c3.176-0.889,7.103,0.942,7.773,4.209
					c0.279,1.36,0.002,2.771,0.095,4.156c0.093,1.386,0.738,2.919,2.054,3.305c1.332,0.391,2.668-0.555,3.666-1.532
					c3.446-3.37,5.784-7.712,7.969-12.03c2.185-4.318,4.306-8.738,7.432-12.415c3.126-3.676,7.451-6.589,12.231-6.86
					c4.781-0.271,9.875,2.68,11.083,7.373c1.211,4.706-1.534,9.481-4.522,13.29c-4.432,5.652-9.676,10.65-15.514,14.788
					c-1.052,0.747-2.193,1.554-2.595,2.79c-0.725,2.225,1.384,4.436,3.581,5.167c2.488,0.829,5.188,0.57,7.791,0.877
					c2.603,0.306,5.423,1.455,6.407,3.915c1.367,3.412-1.486,6.988-4.294,9.33c-5.622,4.691-12.042,8.396-18.891,10.905
					c-2.456,0.898-5.04,1.687-7.02,3.412c-1.98,1.726-3.175,4.726-1.979,7.077c1.197,2.354,4.268,3.106,6.84,2.629
					c2.571-0.476,4.874-1.873,7.325-2.798c4.587-1.732,10.511-1.415,13.45,2.549c1.931,2.606,2.101,6.235,1.124,9.341
					c-0.976,3.107-2.957,5.782-5.06,8.25c-7.353,8.626-16.765,15.571-27.407,19.261
					C359.122,323.578,349.262,324.576,338.686,320.709"/>
			</g>
		</g>
		<g>
			<g>
				<g>
					<path style="fill:#263238;" d="M405.704,204.526c0.008,0.008-0.103,0.116-0.324,0.317c-0.246,0.22-0.575,0.512-0.991,0.884
						c-0.874,0.773-2.163,1.913-3.784,3.426c-3.244,3.016-7.801,7.554-12.75,13.762c-2.484,3.094-5.065,6.597-7.768,10.407
						c-2.697,3.817-5.552,7.914-8.393,12.333c-2.84,4.417-5.684,9.152-8.236,14.267c-1.287,2.551-2.434,5.222-3.605,7.945
						c-1.164,2.722-2.345,5.484-3.542,8.278c-4.743,11.194-8.915,22.015-11.896,32.123c-2.999,10.099-4.782,19.459-5.563,27.391
						c-0.8,7.935-0.637,14.411-0.313,18.854c0.174,2.222,0.344,3.947,0.502,5.111c0.064,0.558,0.116,0.998,0.154,1.327
						c0.032,0.3,0.043,0.455,0.033,0.457c-0.011,0.001-0.043-0.149-0.095-0.447c-0.052-0.327-0.124-0.764-0.215-1.319
						c-0.196-1.16-0.406-2.883-0.617-5.108c-0.397-4.448-0.628-10.946,0.12-18.916c0.728-7.965,2.475-17.372,5.454-27.512
						c2.959-10.147,7.126-21.001,11.873-32.204c1.197-2.796,2.38-5.559,3.546-8.281c1.17-2.715,2.33-5.408,3.628-7.972
						c2.573-5.14,5.439-9.885,8.3-14.305c2.86-4.423,5.735-8.515,8.452-12.321c2.726-3.803,5.333-7.299,7.845-10.384
						c5.007-6.192,9.628-10.698,12.927-13.663c1.646-1.488,2.962-2.601,3.863-3.343c0.434-0.352,0.774-0.629,1.03-0.837
						C405.575,204.609,405.698,204.517,405.704,204.526z"/>
				</g>
			</g>
		</g>
		<g>
			<g>
				<g>
					<path style="fill:#263238;" d="M363.099,259.623c-0.041,0.007-0.155-0.5-0.326-1.424c-0.176-0.923-0.385-2.265-0.619-3.928
						c-0.472-3.323-0.967-7.936-1.494-13.022c-0.527-5.09-1.086-9.682-1.607-12.989c-0.256-1.654-0.477-2.991-0.641-3.913
						c-0.159-0.924-0.228-1.439-0.187-1.449c0.042-0.009,0.189,0.488,0.42,1.399c0.237,0.909,0.523,2.238,0.834,3.888
						c0.634,3.3,1.264,7.903,1.79,12.997c0.507,5.021,0.965,9.564,1.315,13.035c0.168,1.567,0.311,2.887,0.425,3.947
						C363.106,259.096,363.141,259.616,363.099,259.623z"/>
				</g>
			</g>
		</g>
		<g>
			<g>
				<g>
					<path style="fill:#263238;" d="M406.016,251.602c0.001,0.043-0.61,0.113-1.712,0.205c-1.101,0.098-2.695,0.231-4.659,0.459
						c-3.931,0.424-9.34,1.201-15.271,2.318c-5.931,1.129-11.254,2.378-15.078,3.393c-1.917,0.494-3.456,0.936-4.523,1.234
						c-1.065,0.303-1.661,0.451-1.675,0.411c-0.013-0.041,0.558-0.267,1.604-0.642c1.047-0.37,2.572-0.877,4.479-1.427
						c3.805-1.126,9.132-2.448,15.08-3.581c5.948-1.12,11.388-1.831,15.342-2.144c1.976-0.172,3.58-0.24,4.689-0.263
						C405.401,251.549,406.014,251.559,406.016,251.602z"/>
				</g>
			</g>
		</g>
		<g>
			<g>
				<g>
					<path style="fill:#263238;" d="M344.404,307.314c-0.02,0.009-0.12-0.171-0.294-0.523c-0.198-0.42-0.44-0.932-0.734-1.553
						c-0.631-1.351-1.494-3.33-2.527-5.789c-2.071-4.917-4.717-11.798-7.535-19.431c-2.82-7.636-5.398-14.533-7.363-19.485
						c-0.963-2.408-1.756-4.388-2.344-5.86c-0.252-0.639-0.459-1.166-0.629-1.599c-0.137-0.367-0.201-0.565-0.181-0.575
						c0.02-0.008,0.12,0.172,0.294,0.525c0.198,0.42,0.44,0.931,0.734,1.552c0.631,1.351,1.494,3.33,2.528,5.789
						c2.071,4.917,4.717,11.798,7.536,19.434c2.819,7.634,5.397,14.53,7.362,19.483c0.964,2.406,1.755,4.388,2.344,5.859
						c0.252,0.639,0.459,1.167,0.629,1.599C344.36,307.108,344.423,307.306,344.404,307.314z"/>
				</g>
			</g>
		</g>
		<g>
			<g>
				<g>
					<path style="fill:#263238;" d="M401.435,288.934c0.005,0.021-0.19,0.1-0.566,0.233c-0.446,0.149-0.993,0.333-1.656,0.555
						c-1.53,0.496-3.595,1.166-6.107,1.979c-5.156,1.673-12.252,4.064-20.088,6.717c-7.839,2.655-14.963,4.983-20.156,6.549
						c-2.596,0.784-4.703,1.397-6.167,1.79c-0.677,0.178-1.235,0.324-1.689,0.444c-0.388,0.095-0.595,0.134-0.601,0.113
						c-0.006-0.021,0.19-0.1,0.566-0.234c0.445-0.148,0.992-0.332,1.656-0.554c1.53-0.496,3.594-1.164,6.106-1.979
						c5.156-1.672,12.253-4.064,20.092-6.718c7.837-2.654,14.96-4.982,20.152-6.548c2.596-0.784,4.703-1.397,6.168-1.79
						c0.677-0.178,1.234-0.325,1.689-0.444C401.222,288.952,401.428,288.913,401.435,288.934z"/>
				</g>
			</g>
		</g>
	</g>
	<g>
		<path style="fill:#455A64;" d="M352.434,316.567c3.481,0.12,6.844-1.999,8.599-5.007c1.755-3.008,1.995-6.764,1.047-10.115
			c-0.439-1.549-1.242-3.157-2.72-3.796c-1.382-0.597-3.053-0.161-4.223,0.787c-1.169,0.948-1.908,2.329-2.439,3.738
			C350.875,307.005,349.998,312.015,352.434,316.567"/>
		<path style="fill:#455A64;" d="M350.574,325.861c7.335-0.334,14.741,3.134,19.181,8.982c1.13,1.489,2.091,3.54,1.141,5.151
			c-0.952,1.613-3.223,1.762-5.07,1.448c-7.682-1.308-14.233-7.714-15.711-15.365"/>
		<path style="fill:#455A64;" d="M395.344,312.918c-1.784-2.557-4.792-4.095-7.877-4.547c-3.085-0.453-6.245,0.09-9.211,1.048
			c-5.74,1.855-10.995,6.393-14.962,10.937c5.319,4.073,13.081,3.687,17.006,3.244C386.504,322.9,397.292,317.866,395.344,312.918"
			/>
		<g>
			<path style="fill:#263238;" d="M336.967,326.386c0.757-0.297,1.571-0.274,2.898-0.871c2.637-1.204,6.314-2.977,9.773-5.851
				c3.461-2.881,5.707-6.448,6.608-9.249c0.466-1.398,0.668-2.579,0.721-3.397c0.057-0.818,0.021-1.271-0.018-1.272
				c-0.137-0.017-0.125,1.821-1.152,4.507c-0.991,2.681-3.223,6.086-6.593,8.894c-3.375,2.807-6.969,4.628-9.544,5.937"/>
		</g>
		<g>
			<path style="fill:#263238;" d="M336.867,326.408c1.428-0.315,3.298-0.728,5.555-1.226c4.687-1.047,11.165-2.477,18.342-3.963
				c7.174-1.483,13.688-2.74,18.406-3.639c2.269-0.438,4.15-0.801,5.586-1.078c1.318-0.263,2.043-0.43,2.035-0.476
				c-0.008-0.046-0.748,0.034-2.079,0.217c-1.332,0.182-3.254,0.477-5.626,0.867c-4.743,0.779-11.277,1.963-18.459,3.448
				c-7.184,1.487-13.653,2.993-18.315,4.16c-2.332,0.583-4.213,1.074-5.508,1.436"/>
		</g>
		<g>
			<path style="fill:#263238;" d="M364.009,335.215c0.037-0.028-0.2-0.387-0.665-1.016c-0.227-0.319-0.52-0.698-0.904-1.1
				c-0.378-0.407-0.785-0.897-1.315-1.356c-1.005-0.978-2.332-2.007-3.9-3.002c-1.588-0.961-3.428-1.869-5.46-2.563
				c-2.04-0.668-4.057-1.052-5.904-1.24c-1.851-0.149-3.53-0.127-4.921,0.049c-0.7,0.047-1.32,0.194-1.866,0.291
				c-0.549,0.09-1.011,0.216-1.384,0.334c-0.75,0.222-0.897,0.496-0.885,0.54c0.033,0.128,1.434-0.489,4.178-0.69
				c1.37-0.113,3.011-0.085,4.816,0.094c1.8,0.218,3.762,0.61,5.752,1.262c1.981,0.678,3.783,1.545,5.351,2.455
				c1.548,0.943,2.875,1.908,3.902,2.823C362.875,333.91,363.906,335.297,364.009,335.215z"/>
		</g>
	</g>
</g>
<g id="Device">
	<g>
		<g>
			<g>
				<g>
					<g>
						<path style="fill:#263238;" d="M318.255,381.385l-111.523-0.516c-13.413-0.061-24.238-10.982-24.181-24.395l1.182-279.591
							c0.057-13.42,10.985-24.252,24.405-24.191l111.523,0.515c13.413,0.062,24.237,10.983,24.181,24.396l-1.182,279.591
							C342.603,370.615,331.676,381.447,318.255,381.385z"/>
					</g>
					<g>
						<path style="fill:#FAFAFA;" d="M319.502,62.857l-21.622-0.1c-2.899-0.013-5.261,2.434-5.273,5.465l-0.018,3.922
							c-0.012,3.031-2.374,5.478-5.273,5.465l-42.147-0.195c-2.899-0.013-5.24-2.482-5.227-5.513l0.017-3.922
							c0.012-3.031-2.328-5.5-5.228-5.513l-7.604-0.035l-18.925-0.087c-9.399-0.043-17.052,7.543-17.092,16.942l-1.154,272.9
							c-0.04,9.395,7.541,17.043,16.935,17.087l111.3,0.513c9.398,0.044,17.051-7.542,17.092-16.941l1.154-272.901
							C336.477,70.549,328.896,62.901,319.502,62.857z"/>
					</g>
				</g>
			</g>
			<g>
				
					<rect x="250.608" y="96.46" transform="matrix(1 0.0046 -0.0046 1 0.4601 -1.2216)" style="fill:#455A64;" width="28.714" height="5.268"/>
			</g>
			<g>
				<g>
					<path style="fill:#455A64;" d="M217.184,139.627c0.435,0.054,0.677,0.061,0.675,0.098c-0.002-0.036,0.222-0.043,0.629-0.092
						L217.184,139.627z"/>
					<path style="fill:#FAFAFA;" d="M225.055,125.171c-0.518-0.712-1.161-1.357-1.906-1.889c-1.466-1.1-3.349-1.718-5.289-1.737
						c-1.941,0.018-3.824,0.636-5.291,1.736c-0.745,0.532-1.388,1.178-1.906,1.89c-0.529,0.703-0.948,1.47-1.227,2.264
						c-0.606,1.578-0.658,3.24-0.413,4.715c0.255,1.485,0.898,2.776,1.658,3.803c0.109,0.146,0.225,0.273,0.338,0.407
						c0.664-1.892,2.129-4.002,5.415-4.497c-1.519-0.632-2.595-2.2-2.588-4.043c0.01-2.392,1.836-4.322,4.078-4.312
						c2.243,0.01,4.053,1.958,4.043,4.349c-0.009,1.826-1.077,3.375-2.58,4.006c3.23,0.488,4.669,2.584,5.32,4.483
						c0.109-0.13,0.222-0.253,0.327-0.394c0.759-1.028,1.402-2.318,1.657-3.803c0.245-1.475,0.193-3.137-0.413-4.715
						C226.003,126.64,225.583,125.874,225.055,125.171z"/>
					<path style="fill:#455A64;" d="M226.785,127.252c-0.289-0.845-0.727-1.661-1.284-2.412c-0.546-0.759-1.226-1.448-2.014-2.018
						c-1.554-1.175-3.561-1.842-5.626-1.859c-2.066,0.017-4.074,0.683-5.629,1.859c-0.789,0.569-1.469,1.259-2.015,2.018
						c-0.557,0.751-0.995,1.567-1.284,2.412c-0.627,1.68-0.664,3.436-0.383,4.987c0.291,1.561,0.989,2.906,1.805,3.964
						c1.669,2.135,3.795,3.035,5.222,3.344c0.723,0.164,1.302,0.215,1.69,0.208c0.39,0.001,0.592-0.009,0.592-0.029
						c0.003-0.037-0.24-0.044-0.675-0.098l1.304,0.006c-0.407,0.049-0.631,0.056-0.629,0.092c0,0.02,0.203,0.029,0.592,0.029
						c0.388,0.007,0.967-0.044,1.69-0.208c1.427-0.309,3.553-1.209,5.222-3.344c0.815-1.058,1.514-2.403,1.804-3.964
						C227.448,130.688,227.412,128.932,226.785,127.252z M226.694,132.149c-0.255,1.485-0.898,2.775-1.657,3.803
						c-0.105,0.141-0.218,0.263-0.327,0.394c-0.651-1.898-2.09-3.995-5.32-4.483c1.502-0.63,2.571-2.18,2.58-4.006
						c0.01-2.392-1.8-4.339-4.043-4.349c-2.242-0.01-4.068,1.92-4.078,4.312c-0.008,1.843,1.068,3.411,2.588,4.043
						c-3.287,0.495-4.752,2.605-5.415,4.497c-0.113-0.135-0.229-0.262-0.338-0.407c-0.759-1.027-1.403-2.318-1.658-3.803
						c-0.246-1.475-0.193-3.137,0.413-4.715c0.278-0.795,0.698-1.561,1.227-2.264c0.518-0.712,1.161-1.358,1.906-1.89
						c1.467-1.1,3.35-1.718,5.291-1.736c1.94,0.019,3.823,0.637,5.289,1.737c0.744,0.532,1.387,1.178,1.906,1.889
						c0.529,0.703,0.948,1.469,1.227,2.264C226.887,129.013,226.939,130.674,226.694,132.149z"/>
				</g>
				<g>
					<g>
						<path style="fill:#455A64;" d="M325.899,148.054c-0.001-0.024,0.287-0.001,0.829-0.111c0.531-0.112,1.348-0.382,2.129-1.121
							c0.783-0.719,1.456-1.987,1.346-3.575c-0.008-1.587-0.017-3.413-0.027-5.468c-0.014-4.12-0.03-9.152-0.049-14.992
							c-0.004-1.461-0.007-2.973-0.011-4.533c0.091-1.521-0.698-3.086-2.089-3.886c-1.377-0.871-3.172-0.49-4.907-0.572
							c-1.75,0.003-3.545,0.007-5.384,0.01c-29.439,0.022-70.08,0.052-114.967,0.085c-1.316-0.005-2.602,0.659-3.351,1.732
							c-0.386,0.526-0.618,1.154-0.712,1.794c-0.079,0.624-0.031,1.357-0.045,2.04c0,2.772-0.001,5.525-0.001,8.259
							c0.002,5.462,0.003,10.845,0.005,16.134c0.041,1.242,0.694,2.428,1.696,3.141c0.495,0.363,1.072,0.609,1.674,0.712
							c0.587,0.105,1.249,0.057,1.899,0.069c2.598,0.001,5.171,0.003,7.717,0.004c5.092,0.003,10.077,0.007,14.94,0.01
							c19.451,0.023,36.969,0.045,51.687,0.062c14.701,0.039,26.6,0.071,34.845,0.092c4.101,0.024,7.289,0.042,9.474,0.054
							c1.07,0.013,1.891,0.022,2.464,0.029C325.615,148.034,325.899,148.054,325.899,148.054s-0.284,0.02-0.839,0.03
							c-0.573,0.007-1.393,0.016-2.464,0.029c-2.184,0.013-5.372,0.031-9.474,0.055c-8.245,0.022-20.144,0.053-34.845,0.092
							c-14.717,0.018-32.235,0.039-51.687,0.062c-4.864,0.003-9.849,0.006-14.94,0.01c-2.546,0.001-5.119,0.003-7.717,0.004
							c-0.645-0.014-1.296,0.043-1.998-0.076c-0.685-0.117-1.343-0.397-1.906-0.809c-1.14-0.809-1.884-2.161-1.933-3.575
							c-0.005-5.297-0.01-10.689-0.015-16.16c0-2.734-0.001-5.487-0.001-8.259c0.016-0.702-0.04-1.363,0.05-2.12
							c0.106-0.732,0.374-1.449,0.813-2.05c0.852-1.224,2.325-1.984,3.825-1.978c44.887,0.033,85.528,0.063,114.967,0.085
							c1.839,0.004,3.634,0.007,5.384,0.01c0.875,0.002,1.738,0.003,2.59,0.005c0.871-0.027,1.768,0.195,2.505,0.639
							c1.509,0.867,2.356,2.603,2.25,4.205c-0.004,1.561-0.008,3.072-0.012,4.533c-0.019,5.84-0.036,10.872-0.049,14.992
							c-0.01,2.055-0.019,3.882-0.027,5.468c0.096,1.619-0.622,2.944-1.438,3.66c-0.816,0.745-1.657,1-2.198,1.094
							C326.187,148.093,325.899,148.054,325.899,148.054z"/>
					</g>
					<rect x="235.675" y="122.557" style="fill:#455A64;" width="32.475" height="2.436"/>
					<rect x="235.675" y="136.321" style="fill:#455A64;" width="56.899" height="2.436"/>
					<rect x="235.675" y="129.271" style="fill:#455A64;" width="82.458" height="2.436"/>
				</g>
			</g>
			<g>
				<g>
					<path style="fill:#455A64;" d="M217.184,225.793c0.435,0.054,0.677,0.061,0.675,0.097c-0.002-0.036,0.222-0.043,0.629-0.091
						L217.184,225.793z"/>
					<path style="fill:#FAFAFA;" d="M225.055,211.337c-0.518-0.712-1.161-1.357-1.906-1.889c-1.466-1.1-3.349-1.718-5.289-1.737
						c-1.941,0.018-3.824,0.636-5.291,1.736c-0.745,0.532-1.388,1.178-1.906,1.89c-0.529,0.703-0.948,1.469-1.227,2.264
						c-0.606,1.579-0.658,3.24-0.413,4.715c0.255,1.485,0.898,2.776,1.658,3.803c0.109,0.146,0.225,0.273,0.338,0.407
						c0.664-1.892,2.129-4.002,5.415-4.497c-1.519-0.632-2.595-2.2-2.588-4.043c0.01-2.392,1.836-4.322,4.078-4.312
						c2.243,0.01,4.053,1.958,4.043,4.35c-0.009,1.826-1.077,3.375-2.58,4.006c3.23,0.488,4.669,2.584,5.32,4.483
						c0.109-0.13,0.222-0.253,0.327-0.394c0.759-1.028,1.402-2.318,1.657-3.803c0.245-1.475,0.193-3.137-0.413-4.715
						C226.003,212.806,225.583,212.04,225.055,211.337z"/>
					<path style="fill:#455A64;" d="M226.785,213.418c-0.289-0.845-0.727-1.661-1.284-2.412c-0.546-0.759-1.226-1.448-2.014-2.018
						c-1.554-1.175-3.561-1.842-5.626-1.859c-2.066,0.017-4.074,0.683-5.629,1.859c-0.789,0.57-1.469,1.259-2.015,2.018
						c-0.557,0.751-0.995,1.567-1.284,2.412c-0.627,1.68-0.664,3.437-0.383,4.987c0.291,1.561,0.989,2.906,1.805,3.964
						c1.669,2.135,3.795,3.035,5.222,3.344c0.723,0.164,1.302,0.215,1.69,0.208c0.39,0.001,0.592-0.009,0.592-0.029
						c0.003-0.037-0.24-0.044-0.675-0.097l1.304,0.006c-0.407,0.049-0.631,0.056-0.629,0.091c0,0.02,0.203,0.03,0.592,0.029
						c0.388,0.007,0.967-0.044,1.69-0.208c1.427-0.309,3.553-1.209,5.222-3.344c0.815-1.058,1.514-2.403,1.804-3.964
						C227.448,216.854,227.412,215.098,226.785,213.418z M226.694,218.315c-0.255,1.485-0.898,2.775-1.657,3.803
						c-0.105,0.141-0.218,0.263-0.327,0.394c-0.651-1.898-2.09-3.995-5.32-4.483c1.502-0.63,2.571-2.18,2.58-4.006
						c0.01-2.392-1.8-4.339-4.043-4.35c-2.242-0.01-4.068,1.92-4.078,4.312c-0.008,1.843,1.068,3.411,2.588,4.043
						c-3.287,0.495-4.752,2.605-5.415,4.497c-0.113-0.135-0.229-0.262-0.338-0.407c-0.759-1.027-1.403-2.318-1.658-3.803
						c-0.246-1.475-0.193-3.137,0.413-4.715c0.278-0.795,0.698-1.561,1.227-2.264c0.518-0.712,1.161-1.358,1.906-1.89
						c1.467-1.1,3.35-1.718,5.291-1.736c1.94,0.018,3.823,0.637,5.289,1.737c0.744,0.532,1.387,1.178,1.906,1.889
						c0.529,0.703,0.948,1.469,1.227,2.264C226.887,215.179,226.939,216.84,226.694,218.315z"/>
				</g>
				<g>
					<g>
						<path style="fill:#455A64;" d="M325.899,234.22c-0.001-0.024,0.287-0.001,0.829-0.111c0.531-0.112,1.348-0.382,2.129-1.121
							c0.783-0.719,1.456-1.987,1.346-3.575c-0.008-1.587-0.017-3.413-0.027-5.468c-0.014-4.12-0.03-9.152-0.049-14.992
							c-0.004-1.461-0.007-2.973-0.011-4.533c0.091-1.521-0.698-3.086-2.089-3.886c-1.377-0.871-3.172-0.49-4.907-0.572
							c-1.75,0.003-3.545,0.007-5.384,0.01c-29.439,0.022-70.08,0.052-114.967,0.085c-1.316-0.005-2.602,0.659-3.351,1.732
							c-0.386,0.526-0.618,1.154-0.712,1.794c-0.079,0.624-0.031,1.357-0.045,2.04c0,2.772-0.001,5.525-0.001,8.259
							c0.002,5.463,0.003,10.845,0.005,16.134c0.041,1.242,0.694,2.428,1.696,3.141c0.495,0.363,1.072,0.609,1.674,0.712
							c0.587,0.105,1.249,0.057,1.899,0.069c2.598,0.001,5.171,0.003,7.717,0.004c5.092,0.003,10.077,0.007,14.94,0.01
							c19.451,0.023,36.969,0.045,51.687,0.062c14.701,0.039,26.6,0.071,34.845,0.092c4.101,0.024,7.289,0.042,9.474,0.054
							c1.07,0.013,1.891,0.022,2.464,0.029C325.615,234.2,325.899,234.22,325.899,234.22s-0.284,0.02-0.839,0.03
							c-0.573,0.007-1.393,0.016-2.464,0.029c-2.184,0.013-5.372,0.031-9.474,0.055c-8.245,0.022-20.144,0.053-34.845,0.092
							c-14.717,0.018-32.235,0.039-51.687,0.062c-4.864,0.003-9.849,0.006-14.94,0.01c-2.546,0.001-5.119,0.003-7.717,0.004
							c-0.645-0.014-1.296,0.043-1.998-0.076c-0.685-0.117-1.343-0.397-1.906-0.809c-1.14-0.809-1.884-2.161-1.933-3.575
							c-0.005-5.297-0.01-10.689-0.015-16.16c0-2.733-0.001-5.487-0.001-8.259c0.016-0.702-0.04-1.363,0.05-2.12
							c0.106-0.732,0.374-1.449,0.813-2.05c0.852-1.224,2.325-1.984,3.825-1.978c44.887,0.033,85.528,0.063,114.967,0.085
							c1.839,0.004,3.634,0.007,5.384,0.01c0.875,0.002,1.738,0.003,2.59,0.005c0.871-0.027,1.768,0.195,2.505,0.639
							c1.509,0.867,2.356,2.603,2.25,4.205c-0.004,1.561-0.008,3.072-0.012,4.533c-0.019,5.84-0.036,10.872-0.049,14.992
							c-0.01,2.055-0.019,3.882-0.027,5.468c0.096,1.619-0.622,2.944-1.438,3.66c-0.816,0.745-1.657,1-2.198,1.094
							C326.187,234.259,325.899,234.22,325.899,234.22z"/>
					</g>
					<rect x="235.675" y="208.723" style="fill:#455A64;" width="32.475" height="2.436"/>
					<rect x="235.675" y="222.487" style="fill:#455A64;" width="56.899" height="2.436"/>
					<rect x="235.675" y="215.437" style="fill:#455A64;" width="82.458" height="2.436"/>
				</g>
			</g>
			<g>
				<g>
					<path style="fill:#E8505B;" d="M326.602,190.411l-124.055-0.355c-2.172-0.006-3.927-1.771-3.921-3.943l0.076-26.59
						c0.006-2.171,1.771-3.927,3.943-3.921l124.055,0.355c2.171,0.006,3.927,1.771,3.921,3.943l-0.076,26.59
						C330.539,188.661,328.774,190.417,326.602,190.411z"/>
					
						<rect x="235.989" y="164.7" transform="matrix(1 0.0029 -0.0029 1 0.4757 -0.7209)" style="fill:#FAFAFA;" width="32.475" height="2.436"/>
					
						<rect x="235.95" y="178.5" transform="matrix(1 0.0029 -0.0029 1 0.5153 -0.7558)" style="fill:#FAFAFA;" width="56.899" height="2.436"/>
					
						<rect x="235.97" y="171.487" transform="matrix(1 0.0029 -0.0029 1 0.4954 -0.7927)" style="fill:#FAFAFA;" width="82.458" height="2.436"/>
					<g>
						<path style="fill:#FAFAFA;" d="M219.713,173.877c1.489-0.662,2.524-2.234,2.493-4.06c-0.042-2.391-1.893-4.3-4.135-4.262
							c-2.242,0.038-4.026,2.007-3.985,4.398c0.032,1.842,1.141,3.387,2.674,3.987c-3.406,0.588-4.814,2.882-5.397,4.841
							c1.458,1.584,3.457,2.65,5.698,2.915l2.502-0.042c2.265-0.348,4.249-1.512,5.654-3.182
							C224.563,176.531,223.084,174.312,219.713,173.877z"/>
						<g>
							<path style="fill:#FAFAFA;" d="M218.352,181.769c-0.006-0.065,0.823-0.036,2.221-0.435c1.372-0.394,3.375-1.368,4.891-3.478
								c0.74-1.045,1.358-2.352,1.583-3.846c0.215-1.484,0.128-3.149-0.512-4.719c-0.296-0.791-0.733-1.55-1.278-2.245
								c-0.535-0.703-1.193-1.337-1.951-1.855c-1.494-1.072-3.396-1.652-5.343-1.629c-1.947,0.06-3.822,0.721-5.27,1.856
								c-0.735,0.55-1.366,1.212-1.87,1.937c-0.515,0.717-0.919,1.495-1.181,2.298c-0.573,1.597-0.588,3.264-0.309,4.737
								c0.289,1.483,0.962,2.762,1.747,3.775c1.605,2.043,3.648,2.93,5.035,3.264C217.529,181.768,218.355,181.704,218.352,181.769
								c0,0-0.822,0.142-2.283-0.142c-1.431-0.281-3.57-1.137-5.278-3.233c-0.835-1.038-1.559-2.365-1.881-3.916
								c-0.312-1.54-0.312-3.292,0.278-4.98c0.27-0.848,0.69-1.671,1.229-2.431c0.528-0.768,1.191-1.47,1.966-2.054
								c1.525-1.205,3.511-1.911,5.57-1.972c2.058-0.027,4.073,0.594,5.647,1.732c0.798,0.551,1.491,1.223,2.051,1.968
								c0.571,0.736,1.026,1.54,1.332,2.376c0.662,1.661,0.737,3.411,0.491,4.962c-0.255,1.563-0.922,2.92-1.711,3.993
								c-1.617,2.167-3.717,3.114-5.135,3.456C219.18,181.876,218.352,181.769,218.352,181.769z"/>
						</g>
					</g>
				</g>
			</g>
			<g>
				<path style="fill:#455A64;" d="M256.513,343.658c-0.005,1.089-1.037,1.968-2.305,1.962c-1.268-0.006-2.292-0.895-2.288-1.984
					c0.005-1.089,1.036-1.969,2.305-1.962C255.493,341.68,256.517,342.568,256.513,343.658z"/>
			</g>
			<g>
				<path style="fill:#455A64;" d="M263.629,343.691c-0.005,1.089-1.036,1.968-2.305,1.962s-2.292-0.894-2.288-1.984
					c0.004-1.089,1.036-1.968,2.305-1.962C262.609,341.713,263.633,342.601,263.629,343.691z"/>
			</g>
			<g>
				<path style="fill:#455A64;" d="M270.744,343.723c-0.004,1.089-1.036,1.969-2.305,1.962c-1.268-0.005-2.292-0.894-2.288-1.984
					c0.005-1.089,1.036-1.968,2.305-1.962C269.724,341.745,270.749,342.633,270.744,343.723z"/>
			</g>
			<g>
				<g>
					<path style="fill:#455A64;" d="M217.184,270.482c0.435,0.054,0.677,0.061,0.675,0.098c-0.002-0.036,0.222-0.043,0.629-0.092
						L217.184,270.482z"/>
					<path style="fill:#FAFAFA;" d="M225.055,256.025c-0.518-0.712-1.161-1.357-1.906-1.889c-1.466-1.1-3.349-1.718-5.289-1.737
						c-1.941,0.018-3.824,0.636-5.291,1.736c-0.745,0.532-1.388,1.178-1.906,1.89c-0.529,0.703-0.948,1.47-1.227,2.264
						c-0.606,1.578-0.658,3.24-0.413,4.715c0.255,1.485,0.898,2.776,1.658,3.803c0.109,0.146,0.225,0.273,0.338,0.407
						c0.664-1.892,2.129-4.002,5.415-4.497c-1.519-0.632-2.595-2.2-2.588-4.043c0.01-2.392,1.836-4.322,4.078-4.312
						c2.243,0.01,4.053,1.958,4.043,4.349c-0.009,1.826-1.077,3.375-2.58,4.006c3.23,0.488,4.669,2.584,5.32,4.483
						c0.109-0.13,0.222-0.253,0.327-0.394c0.759-1.028,1.402-2.318,1.657-3.803c0.245-1.475,0.193-3.137-0.413-4.715
						C226.003,257.494,225.583,256.728,225.055,256.025z"/>
					<path style="fill:#455A64;" d="M226.785,258.106c-0.289-0.845-0.727-1.661-1.284-2.412c-0.546-0.759-1.226-1.448-2.014-2.018
						c-1.554-1.175-3.561-1.842-5.626-1.859c-2.066,0.017-4.074,0.683-5.629,1.859c-0.789,0.57-1.469,1.259-2.015,2.018
						c-0.557,0.751-0.995,1.567-1.284,2.412c-0.627,1.68-0.664,3.436-0.383,4.987c0.291,1.561,0.989,2.906,1.805,3.964
						c1.669,2.135,3.795,3.035,5.222,3.344c0.723,0.164,1.302,0.215,1.69,0.208c0.39,0.001,0.592-0.009,0.592-0.029
						c0.003-0.037-0.24-0.044-0.675-0.098l1.304,0.006c-0.407,0.049-0.631,0.056-0.629,0.092c0,0.02,0.203,0.029,0.592,0.029
						c0.388,0.007,0.967-0.044,1.69-0.208c1.427-0.309,3.553-1.209,5.222-3.344c0.815-1.058,1.514-2.403,1.804-3.964
						C227.448,261.542,227.412,259.786,226.785,258.106z M226.694,263.004c-0.255,1.485-0.898,2.775-1.657,3.803
						c-0.105,0.141-0.218,0.263-0.327,0.394c-0.651-1.898-2.09-3.995-5.32-4.483c1.502-0.63,2.571-2.18,2.58-4.006
						c0.01-2.392-1.8-4.339-4.043-4.349c-2.242-0.01-4.068,1.92-4.078,4.312c-0.008,1.843,1.068,3.411,2.588,4.043
						c-3.287,0.495-4.752,2.604-5.415,4.497c-0.113-0.134-0.229-0.262-0.338-0.407c-0.759-1.027-1.403-2.318-1.658-3.803
						c-0.246-1.475-0.193-3.137,0.413-4.715c0.278-0.795,0.698-1.561,1.227-2.264c0.518-0.712,1.161-1.358,1.906-1.89
						c1.467-1.1,3.35-1.718,5.291-1.736c1.94,0.018,3.823,0.637,5.289,1.737c0.744,0.532,1.387,1.178,1.906,1.889
						c0.529,0.703,0.948,1.469,1.227,2.264C226.887,259.867,226.939,261.529,226.694,263.004z"/>
				</g>
				<g>
					<g>
						<path style="fill:#455A64;" d="M325.899,278.908c-0.001-0.024,0.287-0.001,0.829-0.111c0.531-0.112,1.348-0.382,2.129-1.121
							c0.783-0.719,1.456-1.987,1.346-3.574c-0.008-1.587-0.017-3.413-0.027-5.468c-0.014-4.12-0.03-9.152-0.049-14.992
							c-0.004-1.461-0.007-2.973-0.011-4.534c0.091-1.521-0.698-3.086-2.089-3.886c-1.377-0.871-3.172-0.49-4.907-0.572
							c-1.75,0.003-3.545,0.007-5.384,0.01c-29.439,0.022-70.08,0.052-114.967,0.085c-1.316-0.005-2.602,0.659-3.351,1.732
							c-0.386,0.526-0.618,1.154-0.712,1.794c-0.079,0.624-0.031,1.357-0.045,2.04c0,2.772-0.001,5.525-0.001,8.259
							c0.002,5.462,0.003,10.845,0.005,16.134c0.041,1.242,0.694,2.428,1.696,3.141c0.495,0.363,1.072,0.609,1.674,0.712
							c0.587,0.105,1.249,0.057,1.899,0.069c2.598,0.001,5.171,0.003,7.717,0.004c5.092,0.003,10.077,0.007,14.94,0.01
							c19.451,0.023,36.969,0.045,51.687,0.062c14.701,0.039,26.6,0.071,34.845,0.092c4.101,0.024,7.289,0.042,9.474,0.055
							c1.07,0.012,1.891,0.022,2.464,0.029C325.615,278.888,325.899,278.908,325.899,278.908s-0.284,0.02-0.839,0.03
							c-0.573,0.007-1.393,0.016-2.464,0.029c-2.184,0.013-5.372,0.031-9.474,0.055c-8.245,0.022-20.144,0.053-34.845,0.092
							c-14.717,0.018-32.235,0.039-51.687,0.062c-4.864,0.003-9.849,0.006-14.94,0.01c-2.546,0.001-5.119,0.003-7.717,0.004
							c-0.645-0.014-1.296,0.043-1.998-0.076c-0.685-0.117-1.343-0.397-1.906-0.809c-1.14-0.809-1.884-2.161-1.933-3.575
							c-0.005-5.297-0.01-10.689-0.015-16.16c0-2.734-0.001-5.487-0.001-8.259c0.016-0.702-0.04-1.363,0.05-2.12
							c0.106-0.732,0.374-1.449,0.813-2.05c0.852-1.224,2.325-1.984,3.825-1.978c44.887,0.033,85.528,0.063,114.967,0.085
							c1.839,0.003,3.634,0.007,5.384,0.01c0.875,0.002,1.738,0.003,2.59,0.005c0.871-0.027,1.768,0.195,2.505,0.639
							c1.509,0.867,2.356,2.603,2.25,4.205c-0.004,1.561-0.008,3.072-0.012,4.534c-0.019,5.84-0.036,10.872-0.049,14.992
							c-0.01,2.055-0.019,3.881-0.027,5.468c0.096,1.619-0.622,2.944-1.438,3.66c-0.816,0.745-1.657,1-2.198,1.094
							C326.187,278.948,325.899,278.908,325.899,278.908z"/>
					</g>
					<rect x="235.675" y="253.411" style="fill:#455A64;" width="32.475" height="2.436"/>
					<rect x="235.675" y="267.175" style="fill:#455A64;" width="56.899" height="2.436"/>
					<rect x="235.675" y="260.126" style="fill:#455A64;" width="82.458" height="2.436"/>
				</g>
			</g>
			<g>
				<g>
					<path style="fill:#455A64;" d="M217.184,314.28c0.435,0.054,0.677,0.061,0.675,0.098c-0.002-0.036,0.222-0.043,0.629-0.091
						L217.184,314.28z"/>
					<path style="fill:#FAFAFA;" d="M225.055,299.823c-0.518-0.712-1.161-1.357-1.906-1.889c-1.466-1.1-3.349-1.718-5.289-1.737
						c-1.941,0.018-3.824,0.636-5.291,1.736c-0.745,0.532-1.388,1.178-1.906,1.89c-0.529,0.703-0.948,1.47-1.227,2.264
						c-0.606,1.578-0.658,3.24-0.413,4.715c0.255,1.485,0.898,2.776,1.658,3.803c0.109,0.145,0.225,0.273,0.338,0.407
						c0.664-1.892,2.129-4.002,5.415-4.497c-1.519-0.632-2.595-2.2-2.588-4.043c0.01-2.392,1.836-4.322,4.078-4.312
						c2.243,0.01,4.053,1.958,4.043,4.35c-0.009,1.826-1.077,3.375-2.58,4.005c3.23,0.488,4.669,2.584,5.32,4.483
						c0.109-0.13,0.222-0.253,0.327-0.394c0.759-1.027,1.402-2.318,1.657-3.803c0.245-1.475,0.193-3.137-0.413-4.715
						C226.003,301.292,225.583,300.526,225.055,299.823z"/>
					<path style="fill:#455A64;" d="M226.785,301.904c-0.289-0.845-0.727-1.661-1.284-2.412c-0.546-0.759-1.226-1.448-2.014-2.018
						c-1.554-1.175-3.561-1.842-5.626-1.859c-2.066,0.017-4.074,0.683-5.629,1.859c-0.789,0.57-1.469,1.259-2.015,2.018
						c-0.557,0.751-0.995,1.567-1.284,2.412c-0.627,1.68-0.664,3.436-0.383,4.987c0.291,1.561,0.989,2.906,1.805,3.964
						c1.669,2.135,3.795,3.035,5.222,3.344c0.723,0.164,1.302,0.215,1.69,0.208c0.39,0.001,0.592-0.009,0.592-0.029
						c0.003-0.037-0.24-0.044-0.675-0.098l1.304,0.006c-0.407,0.049-0.631,0.056-0.629,0.091c0,0.02,0.203,0.029,0.592,0.029
						c0.388,0.007,0.967-0.044,1.69-0.208c1.427-0.309,3.553-1.209,5.222-3.344c0.815-1.058,1.514-2.403,1.804-3.964
						C227.448,305.34,227.412,303.584,226.785,301.904z M226.694,306.802c-0.255,1.485-0.898,2.776-1.657,3.803
						c-0.105,0.141-0.218,0.263-0.327,0.394c-0.651-1.898-2.09-3.995-5.32-4.483c1.502-0.63,2.571-2.18,2.58-4.005
						c0.01-2.392-1.8-4.339-4.043-4.35c-2.242-0.01-4.068,1.92-4.078,4.312c-0.008,1.843,1.068,3.411,2.588,4.043
						c-3.287,0.495-4.752,2.605-5.415,4.497c-0.113-0.134-0.229-0.262-0.338-0.407c-0.759-1.027-1.403-2.318-1.658-3.803
						c-0.246-1.475-0.193-3.137,0.413-4.715c0.278-0.795,0.698-1.561,1.227-2.264c0.518-0.712,1.161-1.358,1.906-1.89
						c1.467-1.1,3.35-1.718,5.291-1.736c1.94,0.019,3.823,0.637,5.289,1.737c0.744,0.532,1.387,1.178,1.906,1.889
						c0.529,0.703,0.948,1.469,1.227,2.264C226.887,303.665,226.939,305.327,226.694,306.802z"/>
				</g>
				<g>
					<g>
						<path style="fill:#455A64;" d="M325.899,322.706c-0.001-0.024,0.287-0.001,0.829-0.111c0.531-0.112,1.348-0.382,2.129-1.121
							c0.783-0.719,1.456-1.987,1.346-3.574c-0.008-1.587-0.017-3.413-0.027-5.468c-0.014-4.12-0.03-9.152-0.049-14.992
							c-0.004-1.461-0.007-2.973-0.011-4.533c0.091-1.521-0.698-3.086-2.089-3.886c-1.377-0.871-3.172-0.49-4.907-0.572
							c-1.75,0.003-3.545,0.007-5.384,0.01c-29.439,0.022-70.08,0.052-114.967,0.085c-1.316-0.005-2.602,0.659-3.351,1.732
							c-0.386,0.526-0.618,1.154-0.712,1.794c-0.079,0.624-0.031,1.357-0.045,2.04c0,2.772-0.001,5.526-0.001,8.259
							c0.002,5.463,0.003,10.845,0.005,16.134c0.041,1.242,0.694,2.428,1.696,3.141c0.495,0.363,1.072,0.609,1.674,0.712
							c0.587,0.105,1.249,0.057,1.899,0.069c2.598,0.001,5.171,0.003,7.717,0.004c5.092,0.003,10.077,0.007,14.94,0.01
							c19.451,0.023,36.969,0.044,51.687,0.062c14.701,0.039,26.6,0.071,34.845,0.092c4.101,0.024,7.289,0.042,9.474,0.055
							c1.07,0.013,1.891,0.022,2.464,0.029C325.615,322.686,325.899,322.706,325.899,322.706s-0.284,0.02-0.839,0.03
							c-0.573,0.007-1.393,0.016-2.464,0.029c-2.184,0.012-5.372,0.031-9.474,0.055c-8.245,0.022-20.144,0.053-34.845,0.092
							c-14.717,0.018-32.235,0.039-51.687,0.062c-4.864,0.003-9.849,0.007-14.94,0.01c-2.546,0.001-5.119,0.003-7.717,0.004
							c-0.645-0.014-1.296,0.044-1.998-0.076c-0.685-0.116-1.343-0.397-1.906-0.809c-1.14-0.809-1.884-2.161-1.933-3.575
							c-0.005-5.297-0.01-10.688-0.015-16.16c0-2.733-0.001-5.487-0.001-8.259c0.016-0.702-0.04-1.363,0.05-2.12
							c0.106-0.732,0.374-1.449,0.813-2.05c0.852-1.224,2.325-1.984,3.825-1.978c44.887,0.033,85.528,0.063,114.967,0.085
							c1.839,0.004,3.634,0.007,5.384,0.01c0.875,0.002,1.738,0.003,2.59,0.005c0.871-0.027,1.768,0.195,2.505,0.639
							c1.509,0.867,2.356,2.603,2.25,4.205c-0.004,1.56-0.008,3.072-0.012,4.533c-0.019,5.84-0.036,10.872-0.049,14.992
							c-0.01,2.055-0.019,3.881-0.027,5.468c0.096,1.619-0.622,2.944-1.438,3.66c-0.816,0.746-1.657,1-2.198,1.094
							C326.187,322.746,325.899,322.706,325.899,322.706z"/>
					</g>
					<rect x="235.675" y="297.209" style="fill:#455A64;" width="32.475" height="2.436"/>
					<rect x="235.675" y="310.973" style="fill:#455A64;" width="56.899" height="2.436"/>
					<rect x="235.675" y="303.924" style="fill:#455A64;" width="82.458" height="2.436"/>
				</g>
			</g>
		</g>
		<g>
			<circle style="fill:#263238;" cx="326.288" cy="158.44" r="6.664"/>
			<polyline style="fill:none;stroke:#FAFAFA;stroke-linecap:round;stroke-linejoin:round;stroke-miterlimit:10;" points="
				323.025,157.901 325.822,160.363 329.552,156.517 			"/>
		</g>
	</g>
</g>
<g id="Character">
	<g>
		<g>
			<polygon style="fill:#E8505B;" points="141.725,454.966 140.09,464.442 154.689,465.506 154.742,456.196 			"/>
			<g>
				<path style="fill:#263238;" d="M148.298,455.096c0.12,0.013,0.003,1.95-0.261,4.326c-0.265,2.376-0.576,4.291-0.697,4.278
					c-0.12-0.013-0.003-1.95,0.261-4.326C147.866,456.998,148.178,455.083,148.298,455.096z"/>
			</g>
			<g>
				<path style="fill:#263238;" d="M154.695,464.483c-0.01,0.062-0.816-0.018-2.115-0.158c-1.456-0.161-3.175-0.352-5.074-0.563
					c-1.982-0.228-3.776-0.47-5.067-0.691c-1.292-0.219-2.081-0.408-2.072-0.465c0.01-0.062,0.816,0.018,2.114,0.158
					c1.456,0.161,3.175,0.352,5.075,0.563c1.982,0.228,3.775,0.47,5.066,0.691C153.914,464.237,154.704,464.425,154.695,464.483z"/>
			</g>
		</g>
		<g>
			<g>
				<g>
					<g>
						<g>
							<path style="fill:#E8505B;" d="M194.418,460.135l0.026-8.492l-15.907-0.15l-0.17,12.424l0.986,0.073
								c4.387,0.285,22.327,1.141,25.27,0.279C207.905,463.307,194.418,460.135,194.418,460.135z"/>
						</g>
					</g>
					<g style="opacity:0.38;">
						<g>
							<path d="M184.136,463.846c-0.214-1.331-0.941-2.573-1.998-3.411c-1.056-0.838-2.363-1.286-3.707-1.191l-0.045,4.446
								L184.136,463.846z"/>
						</g>
					</g>
				</g>
				<g style="opacity:0.38;">
					<g>
						<path d="M201.006,461.92c0,0,4.724,1.411,4.126,2.186c-0.598,0.775-18.76,0.592-26.764-0.19l0.029-0.355l21.183,0.394
							C199.579,463.955,200.079,461.95,201.006,461.92z"/>
					</g>
				</g>
				<g>
					<g>
						<g>
							<path style="fill:#263238;" d="M178.147,463.549c0,0.007,0.094,0.018,0.273,0.032c0.236,0.017,0.494,0.035,0.785,0.055
								c0.785,0.042,1.751,0.093,2.89,0.154c2.441,0.112,5.816,0.223,9.544,0.264c3.73,0.04,7.106,0.002,9.549-0.057
								c1.14-0.036,2.107-0.066,2.892-0.091c0.292-0.014,0.55-0.027,0.786-0.038c0.18-0.011,0.274-0.02,0.274-0.026
								c0-0.007-0.095-0.011-0.275-0.012c-0.236,0.001-0.495,0.001-0.787,0.002c-0.786,0.008-1.752,0.018-2.893,0.03
								c-2.443,0.025-5.817,0.04-9.545,0.001c-3.727-0.041-7.1-0.13-9.541-0.207c-1.14-0.036-2.106-0.067-2.892-0.092
								c-0.292-0.007-0.55-0.014-0.787-0.019C178.242,463.54,178.147,463.542,178.147,463.549z"/>
						</g>
					</g>
				</g>
				<g>
					<g>
						<g>
							<path style="fill:#263238;" d="M199.572,464.202c0.059,0.008,0.111-0.682,0.554-1.375c0.431-0.701,1.029-1.048,0.997-1.097
								c-0.011-0.048-0.696,0.245-1.16,0.995C199.49,463.469,199.524,464.213,199.572,464.202z"/>
						</g>
					</g>
				</g>
				<g>
					<g>
						<g>
							<path style="fill:#263238;" d="M194.903,461.773c0.045,0.029,0.272-0.242,0.508-0.605c0.236-0.363,0.391-0.681,0.346-0.71
								c-0.045-0.029-0.272,0.242-0.508,0.605C195.013,461.427,194.858,461.745,194.903,461.773z"/>
						</g>
					</g>
				</g>
				<g>
					<g>
						<g>
							<path style="fill:#263238;" d="M193.622,461.08c0.035,0.04,0.288-0.125,0.564-0.369c0.277-0.243,0.472-0.473,0.437-0.513
								c-0.035-0.04-0.288,0.125-0.564,0.368C193.782,460.81,193.587,461.04,193.622,461.08z"/>
						</g>
					</g>
				</g>
				<g>
					<g>
						<g>
							<path style="fill:#263238;" d="M192.823,459.57c-0.001,0.053,0.37,0.104,0.829,0.114c0.459,0.01,0.832-0.026,0.833-0.079
								c0.001-0.053-0.37-0.104-0.829-0.114C193.197,459.482,192.824,459.517,192.823,459.57z"/>
						</g>
					</g>
				</g>
				<g>
					<g>
						<g>
							<path style="fill:#263238;" d="M192.554,458.508c-0.018,0.047,0.385,0.234,0.923,0.279c0.539,0.047,0.968-0.068,0.958-0.118
								c-0.008-0.055-0.43-0.028-0.941-0.074C192.982,458.553,192.571,458.456,192.554,458.508z"/>
						</g>
					</g>
				</g>
				<g>
					<g>
						<g>
							<path style="fill:#263238;" d="M195.456,460.391c-0.001,0.022,0.391,0.073,1.022,0.004c0.315-0.035,0.688-0.106,1.09-0.229
								c0.2-0.069,0.409-0.12,0.626-0.25c0.102-0.066,0.215-0.16,0.256-0.315c0.044-0.153-0.036-0.326-0.151-0.41
								c-0.972-0.516-1.956,0.024-2.324,0.525c-0.202,0.256-0.296,0.506-0.34,0.679c-0.043,0.174-0.041,0.274-0.029,0.276
								c0.036,0.013,0.073-0.402,0.474-0.867c0.198-0.228,0.496-0.449,0.879-0.559c0.362-0.103,0.876-0.127,1.217,0.095
								c0.161,0.122,0.096,0.312-0.086,0.418c-0.169,0.107-0.387,0.171-0.577,0.24c-0.388,0.129-0.749,0.212-1.055,0.263
								C195.846,460.363,195.456,460.36,195.456,460.391z"/>
						</g>
					</g>
				</g>
				<g>
					<g>
						<g>
							<path style="fill:#263238;" d="M195.721,460.445c0.015,0.011,0.168-0.248,0.125-0.708c-0.023-0.226-0.103-0.494-0.272-0.75
								c-0.178-0.229-0.407-0.544-0.846-0.53c-0.237,0.028-0.356,0.296-0.32,0.469c0.017,0.179,0.096,0.334,0.169,0.459
								c0.149,0.257,0.319,0.465,0.477,0.623c0.317,0.316,0.569,0.439,0.581,0.42c0.018-0.025-0.202-0.185-0.48-0.512
								c-0.138-0.163-0.289-0.37-0.422-0.618c-0.138-0.218-0.23-0.606,0.027-0.65c0.256-0.022,0.515,0.235,0.669,0.441
								c0.158,0.223,0.245,0.462,0.283,0.668C195.785,460.172,195.687,460.437,195.721,460.445z"/>
						</g>
					</g>
				</g>
				<g>
					<g>
						<g>
							<path style="fill:#263238;" d="M178.515,459.2c0.003,0.036,0.456-0.039,1.174,0.053c0.711,0.086,1.699,0.389,2.553,1.083
								c0.854,0.696,1.35,1.601,1.579,2.28c0.236,0.684,0.255,1.143,0.291,1.139c0.012-0.001,0.019-0.115,0.004-0.321
								c-0.014-0.206-0.061-0.503-0.165-0.86c-0.201-0.708-0.697-1.663-1.588-2.388c-0.891-0.724-1.926-1.015-2.661-1.069
								c-0.37-0.03-0.671-0.014-0.875,0.014C178.624,459.158,178.513,459.188,178.515,459.2z"/>
						</g>
					</g>
				</g>
				<g>
					<g>
						<g>
							<path style="fill:#263238;" d="M180.23,452.597c-0.053-0.001-0.13,1.461-0.171,3.266c-0.041,1.805-0.031,3.269,0.022,3.271
								c0.053,0.001,0.13-1.461,0.171-3.266C180.294,454.062,180.284,452.598,180.23,452.597z"/>
						</g>
					</g>
				</g>
				<g>
					<g>
						<g>
							<path style="fill:#263238;" d="M186.154,462.315c-0.007,0.05,1.028,0.23,2.32,0.254c1.293,0.027,2.334-0.113,2.328-0.163
								c-0.005-0.056-1.044-0.003-2.325-0.03C187.197,462.353,186.16,462.26,186.154,462.315z"/>
						</g>
					</g>
				</g>
				<g>
					<g>
						<g>
							<path style="fill:#263238;" d="M183.036,462.279c-0.039,0.039,0.083,0.221,0.186,0.46c0.107,0.238,0.16,0.451,0.214,0.448
								c0.051,0,0.085-0.251-0.038-0.526C183.278,462.386,183.071,462.241,183.036,462.279z"/>
						</g>
					</g>
				</g>
				<g>
					<g>
						<g>
							<path style="fill:#263238;" d="M181.876,460.805c-0.038,0.037,0.063,0.204,0.226,0.372c0.163,0.168,0.326,0.275,0.364,0.238
								c0.038-0.037-0.063-0.203-0.226-0.372C182.077,460.875,181.914,460.768,181.876,460.805z"/>
						</g>
					</g>
				</g>
				<g>
					<g>
						<g>
							<path style="fill:#263238;" d="M180.201,460.12c0.01,0.054,0.222,0.054,0.455,0.139c0.235,0.079,0.4,0.211,0.442,0.175
								c0.043-0.029-0.089-0.257-0.378-0.357C180.431,459.975,180.186,460.071,180.201,460.12z"/>
						</g>
					</g>
				</g>
				<g>
					<g>
						<g>
							<path style="fill:#263238;" d="M179.008,459.793c-0.02,0.049,0.071,0.132,0.202,0.185c0.131,0.053,0.254,0.055,0.274,0.006
								c0.02-0.049-0.071-0.132-0.202-0.184C179.15,459.746,179.027,459.744,179.008,459.793z"/>
						</g>
					</g>
				</g>
			</g>
		</g>
		<g>
			<g>
				<path style="fill:#FFBE9D;" d="M170.302,202.062c0.122-2.492,0.383-5.307,0.383-5.307s6.161-0.679,6.535-7.044
					c0.374-6.365,0-21.043,0-21.043l-11.222-5.715l-12.345,9.742l1.871,31.824l11.359,0.722
					C168.673,205.355,170.21,203.928,170.302,202.062z"/>
			</g>
			<g>
				<g>
					<path style="fill:#EB996E;" d="M171.412,184.675c0.018,0.005,0.019,0.119-0.098,0.274c-0.114,0.149-0.363,0.319-0.709,0.312
						c-0.715-0.034-1.403-0.825-1.657-1.79c-0.127-0.49-0.126-0.987-0.031-1.415c0.076-0.421,0.319-0.844,0.67-0.959
						c0.167-0.062,0.341-0.056,0.474,0.011c0.13,0.065,0.211,0.165,0.252,0.256c0.083,0.19,0.018,0.305,0.003,0.296
						c-0.026-0.002-0.019-0.106-0.112-0.225c-0.088-0.122-0.298-0.232-0.53-0.112c-0.237,0.107-0.399,0.409-0.459,0.798
						c-0.07,0.384-0.062,0.825,0.052,1.262c0.223,0.865,0.823,1.572,1.356,1.636c0.264,0.034,0.482-0.068,0.601-0.165
						C171.346,184.755,171.389,184.665,171.412,184.675z"/>
				</g>
			</g>
			<g>
				<path style="fill:#263238;" d="M171.366,188.611c0.085-0.234,0.137-0.479,0.202-0.72c0.05-0.176,0.097-0.345,0.148-0.526
					l-0.008-0.003c0.105-0.52,0.173-1.049,0.175-1.59c-1.085,0.427-2.397,0.143-3.229-0.698c-0.832-0.842-1.142-2.199-0.763-3.342
					c0.436-1.314,1.641-2.192,2.88-2.714c1.238-0.521,2.57-0.779,3.786-1.357c2.578-1.227,4.365-3.773,5.582-6.44
					c0.852-1.869,1.488-4.01,0.908-5.99c-0.858-2.93-3.972-4.386-6.811-5.19c-4.317-1.223-8.995-1.765-13.213-0.212
					c-4.219,1.553-9.292,4.285-9.291,8.946c-2.489-0.205-3.912,1.977-4.901,4.68c-0.584,1.596-1.1,5.122-1.1,5.122"/>
			</g>
			<path style="fill:#263238;" d="M155.141,198.005c0,0-10.045-6.065-9.409-19.427c0.636-13.362,25.634,10.033,25.634,10.033
				s-4.786,15.742-15.714,9.394"/>
			<g>
				<path style="fill:#E8505B;" d="M151.43,184.68c-0.066-0.062,0.435-0.532,0.841-1.501c0.409-0.943,0.651-2.476,0.026-3.927
					c-0.641-1.445-1.931-2.308-2.901-2.648c-0.987-0.36-1.672-0.311-1.673-0.402c-0.014-0.05,0.688-0.242,1.785,0.051
					c1.07,0.272,2.542,1.162,3.266,2.79c0.704,1.636,0.357,3.321-0.169,4.291C152.074,184.339,151.457,184.724,151.43,184.68z"/>
			</g>
			<g>
				<path style="fill:#263238;" d="M146.284,176.498c-0.003,0.026-0.253,0.041-0.654-0.139c-0.395-0.175-0.934-0.573-1.319-1.267
					c-0.396-0.691-0.556-1.66-0.434-2.675c0.127-1.013,0.431-2.101,1.029-3.132c0.594-1.03,1.507-1.827,2.484-2.201
					c0.973-0.393,1.999-0.335,2.719-0.011c0.732,0.313,1.177,0.811,1.398,1.18c0.217,0.38,0.244,0.624,0.216,0.632
					c-0.07,0.064-0.377-0.961-1.749-1.469c-0.66-0.246-1.542-0.258-2.404,0.113c-0.864,0.36-1.667,1.073-2.216,2.021
					c-1.066,1.908-1.365,4.103-0.717,5.373C145.282,176.242,146.337,176.426,146.284,176.498z"/>
			</g>
		</g>
		<g>
			<path style="fill:#FFBE9D;" d="M259.827,181.009c-0.447-0.46-1.545-0.243-1.545-0.243s0.192-1.305-0.011-1.936
				c-0.202-0.631-1.609-0.509-1.609-0.509s-0.087-0.607,0.036-1.588c0.032-0.245-0.105-0.427-0.327-0.562
				c-0.666-0.403-2.103-0.384-2.103-0.384c-0.863-0.616,2.626-5.493,3.919-7.055c1.278-1.542,1.063-2.778-0.091-2.776
				c-0.786,0.002-4.858,4.69-6.101,6.264c-1.242,1.573-4.573,5.951-4.686,2.457c-0.113-3.494-1.518-6.136-2.395-6.587
				c-0.877-0.45-1.824,0.606-1.338,1.577c0.393,0.784,0.641,2.295,0.781,3.437c0.116,0.942,0.077,1.898-0.129,2.824
				c-0.583,2.617-1.209,4.317-1.503,5.043l-0.086-0.049c0,0-24.371,23.368-26.128,25.036c-1.581,1.501-33.249-1.775-39.593-2.449
				c-1.734-0.194-4.302-0.543-6.527-0.445c-2.752,0.121-3.242,0.511-5.996,0.548c-8.434,0.113-14.326,0.748-19.557,1.633
				c-6.324,1.07-9.805,6.02-11.763,12.129c-6.403,19.984-23.73,67.031-26.312,93.609c-2.033,3.823-4.305,8.288-5.228,10.8
				c-1.794,4.885-1.359,5.052-0.754,5.164c1.623,0.3,3.481-8.472,4.175-6.356c0.695,2.118-3.52,10.466-1.81,10.71
				c2.229,0.318,4.005-8.901,4.213-9.671c0.202-0.747,1.326-0.495,1.102,0.19c-0.323,0.984-3.465,11.401-1.28,11.735
				c1.211,0.185,1.342-2.022,1.342-2.022s2.222-9.963,3.248-9.771c1.042,0.195-0.065,6.089-0.579,8.049
				c-0.508,1.938,0.208,2.967,1.252,2.48c0.713-0.333,2.428-6.301,2.891-8.252c0.463-1.951,1.637-7.324,3.214-4.204
				c1.576,3.12,3.963,4.924,4.949,4.963c0.985,0.038,1.399-1.318,0.548-1.994c-0.687-0.545-1.549-1.81-2.158-2.787
				c-0.502-0.805-0.871-1.688-1.074-2.615c-0.784-3.573-0.779-5.65-0.779-5.65l-0.182-1.148c2.5-12.386,10.978-54.588,21.331-77.804
				l2.992,14.637l1.851,6.494l-11.361,28.069l48.473-0.639l-7.226-27.845l8.78-29.036l-0.001-0.001
				c9.502,0.212,33.906,0.566,38.008-1.267c5.113-2.284,31.574-35.641,31.574-35.641h-0.001c1.787-1.423,3.605-2.955,4.946-4.291
				C259.22,183.282,260.797,182.006,259.827,181.009z"/>
		</g>
		<g>
			<g>
				<path style="fill:#E8505B;" d="M132.555,261.337c1.403-4.8,8.629-28.536,8.629-28.536s3.546,19.351,2.614,21.681
					c-1.074,2.686-3.048,5.758-3.048,5.758c-8.196,12.482-7.12,18.72-7.12,18.72l49.508-1.51c0.121-6.924-3.978-23.021-4.835-25.586
					c-0.858-2.564,1.986-10.982,1.986-10.982s5.595-5.682,5.378-8.606c-0.437-5.891-0.975-7.794-0.975-7.794l36.668,0.701
					l-4.103-19.936l-35.357-2.583l-11.765-1.103c-5.913,4.992-14.785,0-14.785,0c-11.283,1.103-12.934,2.909-17.564,7.534
					c-5.493,5.487-20.354,47.418-20.354,47.418L132.555,261.337z"/>
			</g>
			<g>
				<g>
					<path style="fill:#263238;" d="M161.835,256.509c-0.001,0.077-0.997,0.143-2.609,0.132c-1.612-0.01-3.838-0.11-6.286-0.355
						c-2.449-0.247-4.651-0.593-6.232-0.904c-1.582-0.311-2.545-0.572-2.53-0.649c0.015-0.082,1.004,0.038,2.596,0.243
						c1.592,0.206,3.79,0.485,6.225,0.731c2.434,0.244,4.643,0.409,6.244,0.523C160.843,256.345,161.836,256.425,161.835,256.509z"
						/>
				</g>
			</g>
			<g>
				<g>
					<path style="fill:#263238;" d="M165.224,252.298c0.021,0.071-1,0.459-2.703,0.921c-1.702,0.461-4.092,0.971-6.768,1.291
						c-2.677,0.316-5.12,0.382-6.883,0.33c-1.764-0.05-2.847-0.19-2.843-0.263c0.004-0.086,1.091-0.094,2.842-0.148
						c1.751-0.055,4.165-0.183,6.815-0.497c2.649-0.316,5.027-0.757,6.741-1.113C164.141,252.462,165.201,252.215,165.224,252.298z"
						/>
				</g>
			</g>
			<g>
				<g>
					<path style="fill:#263238;" d="M181.878,233.516c0.077,0.016-0.05,0.981-0.339,2.526c-0.288,1.544-0.741,3.666-1.311,5.993
						c-0.571,2.328-1.151,4.419-1.61,5.921c-0.459,1.503-0.792,2.417-0.868,2.396c-0.079-0.022,0.115-0.975,0.472-2.503
						c0.422-1.743,0.907-3.743,1.443-5.952c0.547-2.205,1.043-4.203,1.475-5.944C181.529,234.434,181.798,233.499,181.878,233.516z"
						/>
				</g>
			</g>
		</g>
		<g>
			<g>
				<path style="fill:#455A64;" d="M133.296,279.296l49.508-1.51l21.533,84.12l-3.966,96.492h-26.204l3.247-94.438l-19.151-58.559
					l2.907,153.992l-26.456,0.39l-2.743-144.582c-0.116-4.094-1.464-13.333-0.962-17.395L133.296,279.296z"/>
			</g>
			<g>
				<g>
					<path style="fill:#263238;" d="M164.857,306.59c-0.01,0.077-0.939,0.032-2.428-0.144c-1.49-0.176-3.539-0.49-5.783-0.94
						c-2.245-0.453-4.256-0.955-5.697-1.37c-1.441-0.414-2.316-0.729-2.295-0.806c0.044-0.161,3.639,0.71,8.107,1.605
						C161.226,305.839,164.878,306.425,164.857,306.59z"/>
				</g>
			</g>
			<g>
				<g>
					<path style="fill:#263238;" d="M200.133,453.106c0,0.161-5.933,0.291-13.249,0.291c-7.319,0-12.532-0.224-12.532-0.385
						c0-0.16,5.212-0.196,12.532-0.196C194.2,452.816,200.133,452.946,200.133,453.106z"/>
				</g>
			</g>
			<g>
				<g>
					<path style="fill:#263238;" d="M160.796,453.397c0,0.161-5.755,0.291-12.854,0.291c-7.1,0-12.855-0.13-12.855-0.291
						c0-0.16,5.755-0.29,12.855-0.29C155.041,453.107,160.796,453.236,160.796,453.397z"/>
				</g>
			</g>
			<g>
				<g>
					<path style="fill:#263238;" d="M157.569,453.397c-0.16,0.002-0.856-33.291-1.554-74.353
						c-0.698-41.077-1.133-74.368-0.973-74.37c0.161-0.002,0.857,33.284,1.554,74.361
						C157.294,420.096,157.73,453.394,157.569,453.397z"/>
				</g>
			</g>
			<g>
				<g>
					<path style="fill:#263238;" d="M196.614,453.106c-0.01,0-0.014-0.155-0.012-0.456c0.006-0.329,0.014-0.772,0.024-1.338
						c0.035-1.207,0.084-2.933,0.149-5.141c0.156-4.495,0.38-10.945,0.656-18.904c0.611-15.986,1.454-38.021,2.385-62.359
						c0.009-0.225,0.018-0.449,0.026-0.656l0.009,0.083c-5.868-23.496-11.172-44.732-15.016-60.131
						c-1.887-7.67-3.416-13.884-4.48-18.214c-0.511-2.128-0.91-3.793-1.189-4.957c-0.125-0.546-0.223-0.974-0.295-1.292
						c-0.064-0.292-0.091-0.443-0.081-0.445c0.009-0.002,0.056,0.144,0.138,0.431c0.086,0.314,0.202,0.738,0.351,1.278
						c0.304,1.158,0.739,2.813,1.295,4.931c1.107,4.318,2.697,10.517,4.659,18.169c3.888,15.386,9.25,36.609,15.183,60.088
						l0.01,0.04l-0.002,0.043c-0.008,0.206-0.017,0.431-0.026,0.656c-0.997,24.335-1.9,46.367-2.555,62.352
						c-0.354,7.956-0.641,14.403-0.841,18.896c-0.111,2.206-0.198,3.931-0.258,5.137c-0.034,0.565-0.062,1.008-0.082,1.336
						C196.64,452.953,196.624,453.107,196.614,453.106z"/>
				</g>
			</g>
			<g>
				<g>
					<path style="fill:#263238;" d="M188.073,362.287c0.027,0.158-2.565,0.735-5.789,1.289c-2.408,0.414-4.486,0.698-5.395,0.749
						l-0.002-0.227c0.301,0.083,0.463,0.147,0.457,0.188c-0.006,0.04-0.18,0.052-0.492,0.039l-0.677-0.029l0.675-0.197
						c0.873-0.255,2.928-0.681,5.335-1.095C185.41,362.45,188.046,362.128,188.073,362.287z"/>
				</g>
			</g>
			<g>
				<g>
					<path style="fill:#263238;" d="M187.573,365.497c-0.022,0.161-2.348-0.017-5.212-0.238c-2.864-0.226-5.19-0.409-5.186-0.572
						c0.003-0.158,2.349-0.234,5.232-0.008C185.287,364.902,187.594,365.342,187.573,365.497z"/>
				</g>
			</g>
			<g>
				<path style="fill:#263238;" d="M133.076,281.073c1.197,1.685,2.904,2.276,4.888,2.601c1.983,0.325,4.007,0.108,6.004-0.113
					c12.779-1.418,26.32-2.726,38.836-5.775c-16.2,0.908-33.308,0.602-49.508,1.51c0,0-0.138,1.114-0.171,1.383"/>
			</g>
			<g>
				<polygon style="fill:#263238;" points="149.775,303.908 158.902,339.339 158.263,305.401 				"/>
			</g>
		</g>
		<g>
			<g>
				<path style="fill:#263238;" d="M147.935,176.907c-3.519-0.934-7.192,2.814-7.32,6.452c-0.037,1.04,0.115,2.236-0.622,2.971
					c-0.783,0.781-2.067,0.549-3.17,0.636c-2.263,0.177-4.255,2.133-4.474,4.392c-0.157,1.624,0.487,3.36-0.19,4.844
					c-0.644,1.412-2.249,2.076-3.34,3.179c-1.403,1.418-1.895,3.544-1.752,5.533c0.143,1.99,0.847,3.891,1.551,5.757
					c0.645,1.709,1.482,3.606,3.201,4.222h14.788l1.114-5.584l1.806,5.584h2.406l-1.293-36.235
					C150.643,178.658,150.634,177.623,147.935,176.907z"/>
			</g>
			<g>
				<path style="fill:#263238;" d="M127.711,194.213c-0.003,0.026-0.159-0.038-0.396,0.081c-0.232,0.106-0.517,0.476-0.354,0.962
					c0.139,0.469,0.636,0.962,1.336,1.085c0.689,0.156,1.566-0.198,1.912-1.026c0.179-0.4,0.205-0.866,0.035-1.314
					c-0.162-0.452-0.483-0.875-0.809-1.336c-0.706-0.911-1.109-2.225-0.915-3.537c0.158-1.311,0.966-2.643,2.245-3.35
					c1.24-0.728,2.912-0.892,4.311-0.248c1.368,0.59,2.546,1.462,3.85,1.286c0.624-0.063,1.202-0.359,1.454-0.873
					c0.262-0.511,0.222-1.153,0.201-1.78c-0.115-2.587,0.882-4.925,2.335-6.251c1.464-1.351,3.148-1.666,4.213-1.622
					c0.544,0.02,0.956,0.125,1.227,0.208c0.268,0.096,0.401,0.161,0.396,0.177c-0.014,0.053-0.573-0.194-1.624-0.183
					c-1.025,0.018-2.615,0.382-3.957,1.686c-1.335,1.282-2.245,3.499-2.11,5.966c0.02,0.615,0.1,1.33-0.237,2.023
					c-0.337,0.703-1.116,1.086-1.841,1.155c-0.733,0.085-1.504-0.083-2.165-0.385c-0.672-0.288-1.292-0.658-1.941-0.927
					c-1.27-0.583-2.731-0.433-3.858,0.21c-1.146,0.629-1.862,1.788-2.023,2.975c-0.18,1.196,0.146,2.349,0.796,3.224
					c0.309,0.457,0.651,0.912,0.833,1.449c0.194,0.533,0.15,1.135-0.078,1.599c-0.218,0.472-0.594,0.837-1.021,1.033
					c-0.431,0.197-0.89,0.213-1.284,0.126c-0.8-0.173-1.343-0.759-1.475-1.318c-0.163-0.59,0.229-1.035,0.507-1.111
					C127.566,194.095,127.722,194.208,127.711,194.213z"/>
			</g>
		</g>
		<g>
			<path style="fill:#263238;" d="M185.01,224.135c0,0.027-0.408,0.055-1.14-0.024c-0.732-0.074-1.787-0.32-2.991-0.874
				c-1.204-0.549-2.533-1.461-3.7-2.781c-1.166-1.31-2.135-3.067-2.52-5.079c-0.351-2.019-0.065-4.005,0.564-5.643
				c0.626-1.647,1.548-2.97,2.48-3.909c0.931-0.944,1.831-1.546,2.489-1.874c0.657-0.332,1.049-0.449,1.058-0.425
				c0.066,0.106-1.533,0.645-3.279,2.551c-0.868,0.939-1.722,2.235-2.298,3.823c-0.579,1.58-0.833,3.472-0.501,5.383
				c0.365,1.904,1.27,3.584,2.37,4.858c1.1,1.282,2.356,2.193,3.5,2.765C183.348,224.074,185.035,224.013,185.01,224.135z"/>
		</g>
	</g>
</g>
</svg>
